<svg width="155" height="43" viewBox="0 0 155 43" fill="none" xmlns="http://www.w3.org/2000/svg">
<path d="M11.6641 17.3281L13.127 11.8594H19.9629L18.5 17.3281H11.6641ZM18.1309 18.6953L16.2988 25.5312H21.7676L20.3047 31H8L11.2949 18.6953H18.1309ZM25.3359 17.3281C26.3112 13.6823 28.6217 11.8594 32.2676 11.8594H37.7363C41.3822 11.8594 42.7174 13.6823 41.7422 17.3281L39.541 25.5312C38.5658 29.1771 36.2552 31 32.6094 31H27.1406C23.4948 31 22.1595 29.1771 23.1348 25.5312L24.9668 18.6953H31.8027L29.9707 25.5312H32.7051L34.9062 17.3281H25.3359ZM50.3965 20.7461C51.4264 20.2904 52.0645 19.6068 52.3105 18.6953L52.6797 17.3281H43.1094C44.0846 13.6823 46.3952 11.8594 50.041 11.8594H55.5098C59.1556 11.8594 60.4909 13.6823 59.5156 17.3281L55.8516 31H49.0156L50.1094 26.8984L47.0195 28.2656L46.2812 31H39.4453L42.7402 18.6953H49.5762L48.8516 21.4297L50.3965 20.7461ZM60.8828 17.3281L62.3457 11.8594H73.2832C76.929 11.8594 78.2643 13.6823 77.2891 17.3281L75.0879 25.5312C74.1126 29.1771 71.8021 31 68.1562 31H57.2188L60.5137 18.6953H67.3496L65.5176 25.5312H68.252L70.4531 17.3281H60.8828ZM78.6562 17.3281L80.1191 11.8594H86.9551L85.4922 17.3281H78.6562ZM85.123 18.6953L81.8281 31H74.9922L78.2871 18.6953H85.123ZM86.8594 17.3281C87.8346 13.6823 90.1452 11.8594 93.791 11.8594H99.2598C102.906 11.8594 104.241 13.6823 103.266 17.3281L99.6016 31H92.7656L96.4297 17.3281H86.8594ZM93.3262 18.6953L90.0312 31H83.1953L86.4902 18.6953H93.3262ZM111.1 18.6953L109.268 25.5312H112.002L112.371 24.1641H111.004L112.467 18.6953H120.67L117.375 31H106.438C102.792 31 101.456 29.1771 102.432 25.5312L104.264 18.6953H111.1ZM104.633 17.3281C105.608 13.6823 107.919 11.8594 111.564 11.8594H119.768L118.305 17.3281H104.633ZM128.777 24.1641L123.842 32.3672H118.373L121.941 24.1641H128.777ZM138.348 24.1641L133.412 32.3672H127.943L131.512 24.1641H138.348ZM147.918 24.1641L142.982 32.3672H137.514L141.082 24.1641H147.918Z" fill="#F1F1F1"/>
</svg>
