<svg width="122" height="39" viewBox="0 0 122 39" fill="none" xmlns="http://www.w3.org/2000/svg">
<path d="M17.5742 27.2656L16.8359 30H10L13.2949 17.6953H20.1309L19.4062 20.4297L20.9512 19.7461C21.9811 19.2904 22.6191 18.6068 22.8652 17.6953L23.2344 16.3281H13.6641L15.127 10.8594H26.0645C29.7103 10.8594 31.0456 12.6823 30.0703 16.3281L29.332 19.0625C28.6758 21.5143 26.8802 23.4193 23.9453 24.7773L27.7734 30H19.5703L17.5742 27.2656ZM31.4375 16.3281L32.9004 10.8594H46.5723L45.1094 16.3281H31.4375ZM42.0059 17.6953L40.543 23.1641H36.4414L36.0723 24.5312H42.9082L41.4453 30H27.7734L31.0684 17.6953H42.0059ZM46.4766 16.3281C47.4518 12.6823 49.7624 10.8594 53.4082 10.8594H62.9785L61.5156 16.3281H46.4766ZM57.0449 17.6953C60.6908 17.6953 62.026 19.5182 61.0508 23.1641L60.6816 24.5312C59.7064 28.1771 57.3958 30 53.75 30H44.1797L45.6426 24.5312H53.8457L54.2148 23.1641H50.1133C46.4674 23.1641 45.1322 21.3411 46.1074 17.6953H57.0449ZM70.7168 17.6953L68.8848 24.5312H71.6191L75.2832 10.8594H82.1191L78.4551 24.5312C77.4798 28.1771 75.1693 30 71.5234 30H66.0547C62.4089 30 61.0736 28.1771 62.0488 24.5312L63.8809 17.6953H70.7168ZM64.25 16.3281L65.7129 10.8594H72.5488L71.0859 16.3281H64.25ZM82.0234 16.3281L83.4863 10.8594H90.3223L88.8594 16.3281H82.0234ZM88.4902 17.6953L86.6582 24.5312H92.127L90.6641 30H78.3594L81.6543 17.6953H88.4902ZM95.6953 16.3281L97.1582 10.8594H112.197L110.734 16.3281H95.6953ZM106.264 17.6953L102.969 30H96.1328L99.4277 17.6953H106.264Z" fill="url(#paint0_linear_992_1844)"/>
<path d="M17.5742 27.2656L19.755 25.6737L16.4352 21.1261L14.9676 26.5618L17.5742 27.2656ZM16.8359 30V32.7H18.9036L19.4426 30.7038L16.8359 30ZM10 30L7.39189 29.3016L6.48187 32.7H10V30ZM13.2949 17.6953V14.9953H11.2228L10.6868 16.9969L13.2949 17.6953ZM20.1309 17.6953L22.7408 18.3869L23.6396 14.9953H20.1309V17.6953ZM19.4062 20.4297L16.7963 19.7381L15.3557 25.1745L20.4988 22.8988L19.4062 20.4297ZM20.9512 19.7461L22.0437 22.2152L20.9512 19.7461ZM23.2344 16.3281L25.841 17.0319L26.7601 13.6281H23.2344V16.3281ZM13.6641 16.3281L11.0558 15.6304L10.1469 19.0281H13.6641V16.3281ZM15.127 10.8594V8.15937H13.0543L12.5187 10.1617L15.127 10.8594ZM30.0703 16.3281L32.677 17.0319L32.6786 17.0258L30.0703 16.3281ZM29.332 19.0625L26.7254 18.3587L26.7238 18.3644L29.332 19.0625ZM23.9453 24.7773L22.8114 22.327L19.8172 23.7125L21.7677 26.3735L23.9453 24.7773ZM27.7734 30V32.7H33.1001L29.9511 28.4038L27.7734 30ZM19.5703 30L17.3896 31.592L18.1984 32.7H19.5703V30ZM14.9676 26.5618L14.2293 29.2962L19.4426 30.7038L20.1809 27.9694L14.9676 26.5618ZM16.8359 27.3H10V32.7H16.8359V27.3ZM12.6081 30.6984L15.903 18.3937L10.6868 16.9969L7.39189 29.3016L12.6081 30.6984ZM13.2949 20.3953H20.1309V14.9953H13.2949V20.3953ZM17.5209 17.0037L16.7963 19.7381L22.0162 21.1213L22.7408 18.3869L17.5209 17.0037ZM20.4988 22.8988L22.0437 22.2152L19.8587 17.277L18.3137 17.9606L20.4988 22.8988ZM22.0437 22.2152C23.6591 21.5004 24.9717 20.2518 25.4719 18.3991L20.2586 16.9915C20.252 17.016 20.2466 17.0256 20.2457 17.0272C20.2448 17.0288 20.2411 17.0356 20.2283 17.0493C20.2031 17.0763 20.1072 17.167 19.8587 17.277L22.0437 22.2152ZM25.4719 18.3991L25.841 17.0319L20.6277 15.6243L20.2586 16.9915L25.4719 18.3991ZM23.2344 13.6281H13.6641V19.0281H23.2344V13.6281ZM16.2724 17.0258L17.7352 11.5571L12.5187 10.1617L11.0558 15.6304L16.2724 17.0258ZM15.127 13.5594H26.0645V8.15937H15.127V13.5594ZM26.0645 13.5594C27.5596 13.5594 27.712 13.9447 27.6221 13.8221C27.5601 13.7373 27.8769 14.0796 27.462 15.6304L32.6786 17.0258C33.239 14.9308 33.3758 12.5387 31.9785 10.6311C30.5533 8.6855 28.2151 8.15937 26.0645 8.15937V13.5594ZM27.4637 15.6243L26.7254 18.3587L31.9387 19.7663L32.677 17.0319L27.4637 15.6243ZM26.7238 18.3644C26.3292 19.839 25.2348 21.2056 22.8114 22.327L25.0792 27.2277C28.5256 25.6329 31.0224 23.1897 31.9402 19.7606L26.7238 18.3644ZM21.7677 26.3735L25.5958 31.5962L29.9511 28.4038L26.123 23.1812L21.7677 26.3735ZM27.7734 27.3H19.5703V32.7H27.7734V27.3ZM21.7511 28.408L19.755 25.6737L15.3935 28.8576L17.3896 31.592L21.7511 28.408ZM31.4375 16.3281L28.8292 15.6304L27.9203 19.0281H31.4375V16.3281ZM32.9004 10.8594V8.15937H30.8277L30.2921 10.1617L32.9004 10.8594ZM46.5723 10.8594L49.1806 11.5571L50.0894 8.15937H46.5723V10.8594ZM45.1094 16.3281V19.0281H47.1821L47.7177 17.0258L45.1094 16.3281ZM42.0059 17.6953L44.6142 18.393L45.523 14.9953H42.0059V17.6953ZM40.543 23.1641V25.8641H42.6157L43.1513 23.8618L40.543 23.1641ZM36.4414 23.1641V20.4641H34.3737L33.8347 22.4603L36.4414 23.1641ZM36.0723 24.5312L33.4656 23.8275L32.5466 27.2313H36.0723V24.5312ZM42.9082 24.5312L45.5165 25.229L46.4254 21.8313H42.9082V24.5312ZM41.4453 30V32.7H43.518L44.0536 30.6977L41.4453 30ZM27.7734 30L25.1653 29.3016L24.2553 32.7H27.7734V30ZM31.0684 17.6953V14.9953H28.9962L28.4602 16.9969L31.0684 17.6953ZM34.0458 17.0258L35.5087 11.5571L30.2921 10.1617L28.8292 15.6304L34.0458 17.0258ZM32.9004 13.5594H46.5723V8.15937H32.9004V13.5594ZM43.964 10.1617L42.5011 15.6304L47.7177 17.0258L49.1806 11.5571L43.964 10.1617ZM45.1094 13.6281H31.4375V19.0281H45.1094V13.6281ZM39.3976 16.9976L37.9347 22.4663L43.1513 23.8618L44.6142 18.393L39.3976 16.9976ZM40.543 20.4641H36.4414V25.8641H40.543V20.4641ZM33.8347 22.4603L33.4656 23.8275L38.6789 25.235L39.0481 23.8679L33.8347 22.4603ZM36.0723 27.2313H42.9082V21.8313H36.0723V27.2313ZM40.2999 23.8335L38.837 29.3023L44.0536 30.6977L45.5165 25.229L40.2999 23.8335ZM41.4453 27.3H27.7734V32.7H41.4453V27.3ZM30.3815 30.6984L33.6765 18.3937L28.4602 16.9969L25.1653 29.3016L30.3815 30.6984ZM31.0684 20.3953H42.0059V14.9953H31.0684V20.3953ZM46.4766 16.3281L43.8683 15.6304L42.9594 19.0281H46.4766V16.3281ZM62.9785 10.8594L65.5868 11.5571L66.4957 8.15937H62.9785V10.8594ZM61.5156 16.3281V19.0281H63.5883L64.1239 17.0258L61.5156 16.3281ZM61.0508 23.1641L63.6574 23.8679L63.6591 23.8618L61.0508 23.1641ZM60.6816 24.5312L58.075 23.8274L58.0733 23.8335L60.6816 24.5312ZM44.1797 30L41.5714 29.3023L40.6625 32.7H44.1797V30ZM45.6426 24.5312V21.8313H43.5699L43.0343 23.8335L45.6426 24.5312ZM53.8457 24.5312V27.2313H55.9134L56.4524 25.235L53.8457 24.5312ZM54.2148 23.1641L56.8215 23.8679L57.7405 20.4641H54.2148V23.1641ZM46.1074 17.6953V14.9953H44.0347L43.4991 16.9976L46.1074 17.6953ZM49.0849 17.0258C49.4647 15.6057 50.0299 14.8066 50.6133 14.3463C51.1874 13.8933 52.0437 13.5594 53.4082 13.5594V8.15937C51.1269 8.15937 49.005 8.73689 47.2686 10.1068C45.5414 11.4695 44.4636 13.4047 43.8683 15.6304L49.0849 17.0258ZM53.4082 13.5594H62.9785V8.15937H53.4082V13.5594ZM60.3702 10.1617L58.9073 15.6304L64.1239 17.0258L65.5868 11.5571L60.3702 10.1617ZM61.5156 13.6281H46.4766V19.0281H61.5156V13.6281ZM57.0449 20.3953C58.5401 20.3953 58.6924 20.7806 58.6026 20.658C58.5405 20.5733 58.8573 20.9156 58.4425 22.4663L63.6591 23.8618C64.2195 21.7667 64.3563 19.3747 62.9589 17.467C61.5338 15.5214 59.1956 14.9953 57.0449 14.9953V20.3953ZM58.4441 22.4603L58.075 23.8275L63.2883 25.235L63.6574 23.8679L58.4441 22.4603ZM58.0733 23.8335C57.6935 25.2537 57.1283 26.0528 56.5449 26.5131C55.9708 26.9661 55.1145 27.3 53.75 27.3V32.7C56.0313 32.7 58.1532 32.1225 59.8896 30.7525C61.6168 29.3899 62.6946 27.4546 63.2899 25.229L58.0733 23.8335ZM53.75 27.3H44.1797V32.7H53.75V27.3ZM46.788 30.6977L48.2509 25.229L43.0343 23.8335L41.5714 29.3023L46.788 30.6977ZM45.6426 27.2313H53.8457V21.8313H45.6426V27.2313ZM56.4524 25.235L56.8215 23.8679L51.6082 22.4603L51.239 23.8275L56.4524 25.235ZM54.2148 20.4641H50.1133V25.8641H54.2148V20.4641ZM50.1133 20.4641C48.6181 20.4641 48.4658 20.0787 48.5556 20.2014C48.6177 20.2861 48.3009 19.9438 48.7157 18.393L43.4991 16.9976C42.9387 19.0926 42.8019 21.4847 44.1993 23.3924C45.6244 25.3379 47.9626 25.8641 50.1133 25.8641V20.4641ZM46.1074 20.3953H57.0449V14.9953H46.1074V20.3953ZM70.7168 17.6953L73.3248 18.3942L74.2357 14.9953H70.7168V17.6953ZM68.8848 24.5312L66.2768 23.8323L65.3659 27.2313H68.8848V24.5312ZM71.6191 24.5312V27.2313H73.6908L74.2271 25.2302L71.6191 24.5312ZM75.2832 10.8594V8.15937H73.2115L72.6752 10.1604L75.2832 10.8594ZM82.1191 10.8594L84.7271 11.5583L85.638 8.15937H82.1191V10.8594ZM78.4551 24.5312L75.8471 23.8323L75.8468 23.8335L78.4551 24.5312ZM62.0488 24.5312L59.4409 23.8323L59.4405 23.8335L62.0488 24.5312ZM63.8809 17.6953V14.9953H61.8092L61.2729 16.9964L63.8809 17.6953ZM64.25 16.3281L61.6417 15.6304L60.7328 19.0281H64.25V16.3281ZM65.7129 10.8594V8.15937H63.6402L63.1046 10.1617L65.7129 10.8594ZM72.5488 10.8594L75.1571 11.5571L76.066 8.15937H72.5488V10.8594ZM71.0859 16.3281V19.0281H73.1586L73.6942 17.0258L71.0859 16.3281ZM68.1088 16.9964L66.2768 23.8323L71.4927 25.2302L73.3248 18.3942L68.1088 16.9964ZM68.8848 27.2313H71.6191V21.8313H68.8848V27.2313ZM74.2271 25.2302L77.8912 11.5583L72.6752 10.1604L69.0112 23.8323L74.2271 25.2302ZM75.2832 13.5594H82.1191V8.15937H75.2832V13.5594ZM79.5112 10.1604L75.8471 23.8323L81.063 25.2302L84.7271 11.5583L79.5112 10.1604ZM75.8468 23.8335C75.4669 25.2537 74.9018 26.0528 74.3184 26.5131C73.7442 26.9661 72.888 27.3 71.5234 27.3V32.7C73.8047 32.7 75.9267 32.1225 77.6631 30.7525C79.3902 29.3899 80.468 27.4546 81.0634 25.229L75.8468 23.8335ZM71.5234 27.3H66.0547V32.7H71.5234V27.3ZM66.0547 27.3C64.5595 27.3 64.4072 26.9147 64.497 27.0373C64.5591 27.1221 64.2423 26.7798 64.6571 25.229L59.4405 23.8335C58.8801 25.9286 58.7433 28.3207 60.1407 30.2283C61.5658 32.1739 63.904 32.7 66.0547 32.7V27.3ZM64.6568 25.2302L66.4888 18.3942L61.2729 16.9964L59.4409 23.8323L64.6568 25.2302ZM63.8809 20.3953H70.7168V14.9953H63.8809V20.3953ZM66.8583 17.0258L68.3212 11.5571L63.1046 10.1617L61.6417 15.6304L66.8583 17.0258ZM65.7129 13.5594H72.5488V8.15937H65.7129V13.5594ZM69.9405 10.1617L68.4776 15.6304L73.6942 17.0258L75.1571 11.5571L69.9405 10.1617ZM71.0859 13.6281H64.25V19.0281H71.0859V13.6281ZM82.0234 16.3281L79.4151 15.6304L78.5063 19.0281H82.0234V16.3281ZM83.4863 10.8594V8.15937H81.4136L80.878 10.1617L83.4863 10.8594ZM90.3223 10.8594L92.9306 11.5571L93.8394 8.15937H90.3223V10.8594ZM88.8594 16.3281V19.0281H90.9321L91.4677 17.0258L88.8594 16.3281ZM88.4902 17.6953L91.0982 18.3942L92.0091 14.9953H88.4902V17.6953ZM86.6582 24.5312L84.0502 23.8323L83.1393 27.2313H86.6582V24.5312ZM92.127 24.5312L94.7352 25.229L95.6441 21.8313H92.127V24.5312ZM90.6641 30V32.7H92.7367L93.2724 30.6977L90.6641 30ZM78.3594 30L75.7513 29.3016L74.8412 32.7H78.3594V30ZM81.6543 17.6953V14.9953H79.5822L79.0462 16.9969L81.6543 17.6953ZM84.6317 17.0258L86.0946 11.5571L80.878 10.1617L79.4151 15.6304L84.6317 17.0258ZM83.4863 13.5594H90.3223V8.15937H83.4863V13.5594ZM87.714 10.1617L86.2511 15.6304L91.4677 17.0258L92.9306 11.5571L87.714 10.1617ZM88.8594 13.6281H82.0234V19.0281H88.8594V13.6281ZM85.8823 16.9964L84.0502 23.8323L89.2662 25.2302L91.0982 18.3942L85.8823 16.9964ZM86.6582 27.2313H92.127V21.8313H86.6582V27.2313ZM89.5187 23.8335L88.0558 29.3023L93.2724 30.6977L94.7352 25.229L89.5187 23.8335ZM90.6641 27.3H78.3594V32.7H90.6641V27.3ZM80.9675 30.6984L84.2624 18.3937L79.0462 16.9969L75.7513 29.3016L80.9675 30.6984ZM81.6543 20.3953H88.4902V14.9953H81.6543V20.3953ZM95.6953 16.3281L93.087 15.6304L92.1781 19.0281H95.6953V16.3281ZM97.1582 10.8594V8.15937H95.0855L94.5499 10.1617L97.1582 10.8594ZM112.197 10.8594L114.806 11.5571L115.714 8.15937H112.197V10.8594ZM110.734 16.3281V19.0281H112.807L113.343 17.0258L110.734 16.3281ZM106.264 17.6953L108.872 18.3937L109.782 14.9953H106.264V17.6953ZM102.969 30V32.7H105.041L105.577 30.6984L102.969 30ZM96.1328 30L93.5247 29.3016L92.6147 32.7H96.1328V30ZM99.4277 17.6953V14.9953H97.3556L96.8196 16.9969L99.4277 17.6953ZM98.3036 17.0258L99.7665 11.5571L94.5499 10.1617L93.087 15.6304L98.3036 17.0258ZM97.1582 13.5594H112.197V8.15937H97.1582V13.5594ZM109.589 10.1617L108.126 15.6304L113.343 17.0258L114.806 11.5571L109.589 10.1617ZM110.734 13.6281H95.6953V19.0281H110.734V13.6281ZM103.656 16.9969L100.361 29.3016L105.577 30.6984L108.872 18.3937L103.656 16.9969ZM102.969 27.3H96.1328V32.7H102.969V27.3ZM98.7409 30.6984L102.036 18.3937L96.8196 16.9969L93.5247 29.3016L98.7409 30.6984ZM99.4277 20.3953H106.264V14.9953H99.4277V20.3953Z" fill="#F1F1F1"/>
<defs>
<linearGradient id="paint0_linear_992_1844" x1="92.85" y1="6.01" x2="90.3254" y2="34.7114" gradientUnits="userSpaceOnUse">
<stop stop-color="#FEAC5E"/>
<stop offset="0.514151" stop-color="#C779D0"/>
<stop offset="1" stop-color="#4BC0C8"/>
</linearGradient>
</defs>
</svg>
